<?xml version="1.0" encoding="UTF-8" standalone="no"?>
<svg
   xmlns:dc="http://purl.org/dc/elements/1.1/"
   xmlns:cc="http://creativecommons.org/ns#"
   xmlns:rdf="http://www.w3.org/1999/02/22-rdf-syntax-ns#"
   xmlns:svg="http://www.w3.org/2000/svg"
   xmlns="http://www.w3.org/2000/svg"
   id="svg25609"
   version="1.1"
   viewBox="0 0 16.933333 16.933334"
   height="64"
   width="64">
  <defs
     id="defs25603" />
  <metadata
     id="metadata25606">
    <rdf:RDF>
      <cc:Work
         rdf:about="">
        <dc:format>image/svg+xml</dc:format>
        <dc:type
           rdf:resource="http://purl.org/dc/dcmitype/StillImage" />
        <dc:title></dc:title>
      </cc:Work>
    </rdf:RDF>
  </metadata>
  <g
     transform="translate(0,-280.06665)"
     id="layer1">
    <g
       id="g26246"
       transform="matrix(0.28222223,0,0,0.28222223,160.14572,-25433.154)">
      <circle
         style="opacity:1;fill:#e0b522;fill-opacity:1;stroke:none;stroke-width:2.34375;stroke-linecap:round;stroke-linejoin:round;stroke-miterlimit:4;stroke-dasharray:none;stroke-dashoffset:0;stroke-opacity:1"
         id="circle25129"
         cx="-537.44543"
         cy="91139.836"
         r="30" />
      <g
         id="g25236"
         transform="matrix(0.33924098,0,0,0.33924098,-560.58722,91117.446)"
         style="stroke-width:2.76352215">
        <path
           style="fill:#ffffff;stroke-width:2.76352215"
           class="st1"
           d="M 32.5,43 H 104 c 0,-2.2 -1.8,-4 -4,-4 H 47.5 L 46.2,36.9 C 45.5,35.7 44.2,35 42.8,35 H 28 c -2.2,0 -4,1.8 -4,4 V 59 84.7 L 28.6,46.6 C 28.8,44.5 30.5,43 32.5,43 Z"
           id="path25232" />
        <path
           style="fill:#ffffff;stroke-width:2.76352215"
           class="st1"
           d="m 108.5,47 h -72 c -2,0 -3.7,1.5 -4,3.5 l -5,42 c -0.3,2.4 1.6,4.5 4,4.5 h 71.9 c 2,0 3.7,-1.5 4,-3.5 l 5,-42 c 0.3,-2.4 -1.5,-4.5 -3.9,-4.5 z"
           id="path25234" />
      </g>
    </g>
  </g>
</svg>
