<?xml version="1.0" encoding="UTF-8" standalone="no"?>
<svg
   xmlns:dc="http://purl.org/dc/elements/1.1/"
   xmlns:cc="http://creativecommons.org/ns#"
   xmlns:rdf="http://www.w3.org/1999/02/22-rdf-syntax-ns#"
   xmlns:svg="http://www.w3.org/2000/svg"
   xmlns="http://www.w3.org/2000/svg"
   id="svg25609"
   version="1.1"
   viewBox="0 0 16.933333 16.933334"
   height="64"
   width="64">
  <defs
     id="defs25603" />
  <metadata
     id="metadata25606">
    <rdf:RDF>
      <cc:Work
         rdf:about="">
        <dc:format>image/svg+xml</dc:format>
        <dc:type
           rdf:resource="http://purl.org/dc/dcmitype/StillImage" />
        <dc:title></dc:title>
      </cc:Work>
    </rdf:RDF>
  </metadata>
  <g
     transform="translate(0,-280.06665)"
     id="layer1">
    <g
       id="g26167"
       transform="matrix(0.28222223,0,0,0.28222223,186.60405,-25433.154)">
      <circle
         r="30"
         cy="91139.836"
         cx="-631.19543"
         id="circle43711-9"
         style="opacity:1;fill:#5f8dd3;fill-opacity:1;stroke:none;stroke-width:2.34375;stroke-linecap:round;stroke-linejoin:round;stroke-miterlimit:4;stroke-dasharray:none;stroke-dashoffset:0;stroke-opacity:1" />
      <g
         id="g25224"
         transform="translate(4.2968754e-7,4.3749993e-4)">
        <path
           style="color:#000000;clip-rule:nonzero;display:inline;overflow:visible;visibility:visible;opacity:1;isolation:auto;mix-blend-mode:normal;color-interpolation:sRGB;color-interpolation-filters:linearRGB;solid-color:#000000;solid-opacity:1;fill:#ffffff;fill-opacity:1;fill-rule:nonzero;stroke:none;stroke-width:8.42551327;stroke-linecap:butt;stroke-linejoin:round;stroke-miterlimit:4;stroke-dasharray:none;stroke-dashoffset:0;stroke-opacity:1;color-rendering:auto;image-rendering:auto;shape-rendering:auto;text-rendering:auto;enable-background:accumulate"
           d="m -627.67934,91141.437 a 5.5395315,5.5395315 0 0 1 -5.53959,5.54 5.5395315,5.5395315 0 0 1 -5.5395,-5.54 5.5395315,5.5395315 0 0 1 5.5395,-5.539 5.5395315,5.5395315 0 0 1 5.53959,5.539 z"
           id="path43713-3" />
        <path
           style="color:#000000;clip-rule:nonzero;display:inline;overflow:visible;visibility:visible;opacity:1;isolation:auto;mix-blend-mode:normal;color-interpolation:sRGB;color-interpolation-filters:linearRGB;solid-color:#000000;solid-opacity:1;fill:#ffffff;fill-opacity:1;fill-rule:nonzero;stroke:none;stroke-width:8.42551327;stroke-linecap:butt;stroke-linejoin:round;stroke-miterlimit:4;stroke-dasharray:none;stroke-dashoffset:0;stroke-opacity:1;color-rendering:auto;image-rendering:auto;shape-rendering:auto;text-rendering:auto;enable-background:accumulate"
           d="m -626.32456,91128.959 a 3.3533038,3.3533038 0 0 1 -3.35325,3.353 3.3533038,3.3533038 0 0 1 -3.35334,-3.353 3.3533038,3.3533038 0 0 1 3.35334,-3.353 3.3533038,3.3533038 0 0 1 3.35325,3.353 z"
           id="path43715-7" />
        <path
           style="color:#000000;clip-rule:nonzero;display:inline;overflow:visible;visibility:visible;opacity:1;isolation:auto;mix-blend-mode:normal;color-interpolation:sRGB;color-interpolation-filters:linearRGB;solid-color:#000000;solid-opacity:1;fill:#ffffff;fill-opacity:1;fill-rule:nonzero;stroke:none;stroke-width:8.42551327;stroke-linecap:butt;stroke-linejoin:round;stroke-miterlimit:4;stroke-dasharray:none;stroke-dashoffset:0;stroke-opacity:1;color-rendering:auto;image-rendering:auto;shape-rendering:auto;text-rendering:auto;enable-background:accumulate"
           d="m -615.1954,91138.402 a 3.3533038,3.3533038 0 0 1 -3.35335,3.353 3.3533038,3.3533038 0 0 1 -3.35325,-3.353 3.3533038,3.3533038 0 0 1 3.35325,-3.353 3.3533038,3.3533038 0 0 1 3.35335,3.353 z"
           id="path43717-4" />
        <path
           style="color:#000000;clip-rule:nonzero;display:inline;overflow:visible;visibility:visible;opacity:1;isolation:auto;mix-blend-mode:normal;color-interpolation:sRGB;color-interpolation-filters:linearRGB;solid-color:#000000;solid-opacity:1;fill:#ffffff;fill-opacity:1;fill-rule:nonzero;stroke:none;stroke-width:8.42551327;stroke-linecap:butt;stroke-linejoin:round;stroke-miterlimit:4;stroke-dasharray:none;stroke-dashoffset:0;stroke-opacity:1;color-rendering:auto;image-rendering:auto;shape-rendering:auto;text-rendering:auto;enable-background:accumulate"
           d="m -620.75993,91150.712 a 3.3533038,3.3533038 0 0 1 -3.35335,3.353 3.3533038,3.3533038 0 0 1 -3.35325,-3.353 3.3533038,3.3533038 0 0 1 3.35325,-3.354 3.3533038,3.3533038 0 0 1 3.35335,3.354 z"
           id="path43719-5" />
        <path
           style="color:#000000;clip-rule:nonzero;display:inline;overflow:visible;visibility:visible;opacity:1;isolation:auto;mix-blend-mode:normal;color-interpolation:sRGB;color-interpolation-filters:linearRGB;solid-color:#000000;solid-opacity:1;fill:#ffffff;fill-opacity:1;fill-rule:nonzero;stroke:none;stroke-width:8.42551327;stroke-linecap:butt;stroke-linejoin:round;stroke-miterlimit:4;stroke-dasharray:none;stroke-dashoffset:0;stroke-opacity:1;color-rendering:auto;image-rendering:auto;shape-rendering:auto;text-rendering:auto;enable-background:accumulate"
           d="m -639.64578,91149.194 a 3.3533038,3.3533038 0 0 1 -3.35325,3.354 3.3533038,3.3533038 0 0 1 -3.35334,-3.354 3.3533038,3.3533038 0 0 1 3.35334,-3.353 3.3533038,3.3533038 0 0 1 3.35325,3.353 z"
           id="path43721-2" />
        <path
           style="color:#000000;clip-rule:nonzero;display:inline;overflow:visible;visibility:visible;opacity:1;isolation:auto;mix-blend-mode:normal;color-interpolation:sRGB;color-interpolation-filters:linearRGB;solid-color:#000000;solid-opacity:1;fill:#ffffff;fill-opacity:1;fill-rule:nonzero;stroke:none;stroke-width:8.42551327;stroke-linecap:butt;stroke-linejoin:round;stroke-miterlimit:4;stroke-dasharray:none;stroke-dashoffset:0;stroke-opacity:1;color-rendering:auto;image-rendering:auto;shape-rendering:auto;text-rendering:auto;enable-background:accumulate"
           d="m -640.48878,91131.489 a 3.3533038,3.3533038 0 0 1 -3.35334,3.353 3.3533038,3.3533038 0 0 1 -3.35335,-3.353 3.3533038,3.3533038 0 0 1 3.35335,-3.353 3.3533038,3.3533038 0 0 1 3.35334,3.353 z"
           id="path43723-5" />
        <path
           style="fill:none;fill-rule:evenodd;stroke:#ffffff;stroke-width:2.00000024;stroke-linecap:butt;stroke-linejoin:miter;stroke-miterlimit:4;stroke-dasharray:none;stroke-opacity:1"
           d="m -641.3945,91133.781 4.13232,3.87"
           id="path43725-4" />
        <path
           style="fill:none;fill-rule:evenodd;stroke:#ffffff;stroke-width:2.00000024;stroke-linecap:butt;stroke-linejoin:miter;stroke-miterlimit:4;stroke-dasharray:none;stroke-opacity:1"
           d="m -621.83243,91139.082 -5.96194,1.233"
           id="path43727-7" />
        <path
           style="fill:none;fill-rule:evenodd;stroke:#ffffff;stroke-width:2.00000024;stroke-linecap:butt;stroke-linejoin:miter;stroke-miterlimit:4;stroke-dasharray:none;stroke-opacity:1"
           d="m -626.46247,91148.319 -2.87559,-2.929"
           id="path43729-4" />
        <path
           style="fill:none;fill-rule:evenodd;stroke:#ffffff;stroke-width:2.00000024;stroke-linecap:butt;stroke-linejoin:miter;stroke-miterlimit:4;stroke-dasharray:none;stroke-opacity:1"
           d="m -640.37178,91147.11 2.81278,-2.23"
           id="path43731-4" />
        <path
           style="fill:none;fill-rule:evenodd;stroke:#ffffff;stroke-width:2.00000024;stroke-linecap:butt;stroke-linejoin:miter;stroke-miterlimit:4;stroke-dasharray:none;stroke-opacity:1"
           d="m -630.59328,91132.185 -1.11337,3.923"
           id="path43733-3" />
      </g>
    </g>
  </g>
</svg>
